<?xml version="1.0" ?><!DOCTYPE svg  PUBLIC '-//W3C//DTD SVG 1.1//EN'  'http://www.w3.org/Graphics/SVG/1.1/DTD/svg11.dtd'><svg enable-background="new 0 0 24 24" height="24px" id="Layer_1" version="1.1" viewBox="0 0 24 24" width="24px" xml:space="preserve" xmlns="http://www.w3.org/2000/svg" xmlns:xlink="http://www.w3.org/1999/xlink"><g><path d="M23,4H13V3c0-0.6-0.4-1-1-1H9V1c0-0.6-0.4-1-1-1H5C4.4,0,4,0.4,4,1v1H1C0.4,2,0,2.4,0,3v20c0,0.6,0.4,1,1,1h11   c0.6,0,1-0.4,1-1v-1h10c0.6,0,1-0.4,1-1V5C24,4.4,23.6,4,23,4z M5,1h3v1H5V1z M11,22H2V4h9V22z M23,21H13V5h10V21z"/><rect height="2" width="2" x="20" y="18"/><rect height="2" width="2" x="17" y="18"/><rect height="2" width="2" x="14" y="18"/><rect height="2" width="2" x="20" y="6"/><rect height="2" width="2" x="17" y="6"/><rect height="2" width="2" x="14" y="6"/></g></svg>